<svg xmlns="http://www.w3.org/2000/svg" viewBox="0 0 760 340" width="760" height="340" font-family="ui-monospace, 'JetBrains Mono', 'SF Mono', Menlo, Consolas, monospace"><rect x="0" y="0" width="760" height="340" rx="14" fill="#0d1117"/><text x="24" y="46" font-size="26" font-weight="700" fill="#e6edf3">vramwatch</text><line x1="24" y1="62" x2="736" y2="62" stroke="#161b22" stroke-width="1"/><text x="24" y="88" font-size="15" font-weight="600" fill="#e6edf3">GPU 0 · AMD Radeon RX 7900 XTX</text><text x="736" y="88" text-anchor="end" font-size="12" fill="#8b949e">23.75 GiB / 24.00 GiB</text><text x="24" y="104" font-size="12" fill="#8b949e">amd · driver 6.7.0</text><clipPath id="bar0"><rect x="24" y="114" width="712" height="40" rx="8"/></clipPath><rect x="24" y="114" width="712" height="40" rx="8" fill="#161b22"/><g clip-path="url(#bar0)"><rect x="24.00" y="114" width="578.50" height="40" fill="#4C9BE8"/><rect x="602.50" y="114" width="74.17" height="40" fill="#E8B84C"/><rect x="676.67" y="114" width="51.92" height="40" fill="#6E7681"/><rect x="728.58" y="114" width="7.42" height="40" fill="#3FB950"/></g><rect x="24" y="161" width="12" height="12" rx="2" fill="#4C9BE8"/><text x="44" y="172" font-size="13" fill="#e6edf3">weights (est.)</text><text x="324" y="172" text-anchor="end" font-size="13" fill="#e6edf3">19.50 GiB</text><text x="404" y="172" text-anchor="end" font-size="13" fill="#8b949e">81.2%</text><rect x="24" y="183" width="12" height="12" rx="2" fill="#E8B84C"/><text x="44" y="194" font-size="13" fill="#e6edf3">KV cache (est.)</text><text x="324" y="194" text-anchor="end" font-size="13" fill="#e6edf3">2.50 GiB</text><text x="404" y="194" text-anchor="end" font-size="13" fill="#8b949e">10.4%</text><rect x="24" y="205" width="12" height="12" rx="2" fill="#6E7681"/><text x="44" y="216" font-size="13" fill="#e6edf3">other apps</text><text x="324" y="216" text-anchor="end" font-size="13" fill="#e6edf3">1.75 GiB</text><text x="404" y="216" text-anchor="end" font-size="13" fill="#8b949e">7.3%</text><rect x="24" y="227" width="12" height="12" rx="2" fill="#3FB950"/><text x="44" y="238" font-size="13" fill="#e6edf3">free</text><text x="324" y="238" text-anchor="end" font-size="13" fill="#e6edf3">256.0 MiB</text><text x="404" y="238" text-anchor="end" font-size="13" fill="#8b949e">1.0%</text><text x="24" y="260" font-size="13" fill="#f85149">⚠ OOM risk: headroom 256.0 MiB · ~320.0 KiB/token · max ctx ≈ 8,192 tok</text><text x="24" y="324" font-size="12" fill="#8b949e">generated by vramwatch · github.com/RamazanKara/vramwatch</text></svg>